<svg xmlns="http://www.w3.org/2000/svg" xmlns:xlink="http://www.w3.org/1999/xlink" width="500" zoomAndPan="magnify" viewBox="0 0 375 374.999991" height="500" preserveAspectRatio="xMidYMid meet" version="1.0"><defs><g/><clipPath id="f0be227005"><rect x="0" width="15" y="0" height="36"/></clipPath></defs><path fill="#f59e0b" d="M 138.664062 107.578125 C 166.847656 98.546875 197.070312 97.730469 225.4375 89.261719 C 253.808594 80.792969 282.050781 61.5 287.789062 32.484375 C 288.914062 63.941406 294.378906 105.011719 272.082031 130.523438 C 255.726562 149.191406 235.035156 160.664062 211.984375 168.988281 C 190.230469 176.851562 166.09375 176.140625 144.191406 184.839844 C 120.851562 194.058594 99.886719 216.234375 102.683594 241.078125 C 80.800781 206.574219 84.203125 175.828125 88.3125 162.519531 C 95.714844 138.65625 114.84375 115.273438 138.664062 107.578125 Z M 138.664062 107.578125 " fill-opacity="1" fill-rule="nonzero"/><path fill="#f59e0b" d="M 210.546875 234.820312 C 199.554688 239.679688 190.332031 247.75 181.34375 255.675781 C 178.9375 257.800781 176.703125 260.097656 174.648438 262.5625 C 171.128906 266.84375 168.09375 271.445312 165.539062 276.367188 C 162.988281 281.289062 160.976562 286.421875 159.503906 291.765625 C 154.621094 308.785156 158.292969 319.652344 162.171875 336.925781 C 150.847656 326.972656 138.269531 317.023438 129.945312 304.320312 C 126.972656 299.960938 124.691406 295.261719 123.101562 290.230469 C 121.511719 285.195312 120.675781 280.042969 120.601562 274.765625 C 120.289062 256.699219 133.347656 243.746094 149.804688 238.738281 C 159.167969 235.863281 170.078125 236.652344 179.882812 236.257812 C 188.101562 235.839844 203.015625 238.09375 210.546875 234.820312 Z M 210.546875 234.820312 " fill-opacity="1" fill-rule="nonzero"/><path fill="#f97316" d="M 153.203125 199.085938 C 173.875 192.976562 195.921875 192.828125 216.699219 187.15625 C 237.476562 181.480469 258.417969 167.796875 263.070312 146.75 C 263.359375 169.695312 266.699219 199.691406 250.011719 217.902344 C 237.808594 231.25 222.539062 239.261719 205.601562 245.019531 C 189.625 250.378906 172.082031 249.484375 155.976562 255.449219 C 138.8125 261.707031 123.105469 277.621094 124.816406 295.832031 C 109.441406 270.257812 112.402344 247.855469 115.617188 238.300781 C 121.371094 220.96875 135.722656 204.238281 153.203125 199.085938 Z M 153.203125 199.085938 " fill-opacity="1" fill-rule="nonzero"/><g transform="matrix(1, 0, 0, 1, 357, 312)"><g clip-path="url(#f0be227005)"><g fill="#000000" fill-opacity="1"><g transform="translate(10.763813, 34.985966)"><g><path d="M -0.671875 -1.546875 L -0.671875 -3.90625 L 0 -3.90625 L 0 -0.6875 L -6.671875 -0.6875 L -6.671875 -1.546875 Z M -0.671875 -1.546875 "/></g></g><g transform="translate(10.763813, 30.886305)"><g><path d="M -5.1875 -5.296875 L 0 -5.296875 L 0 -4.4375 L -1.21875 -4.4375 C -0.800781 -4.3125 -0.476562 -4.078125 -0.25 -3.734375 C -0.03125 -3.398438 0.078125 -3.007812 0.078125 -2.5625 C 0.078125 -1.957031 -0.113281 -1.46875 -0.5 -1.09375 C -0.882812 -0.726562 -1.441406 -0.546875 -2.171875 -0.546875 L -5.1875 -0.546875 L -5.1875 -1.40625 L -2.25 -1.40625 C -1.726562 -1.40625 -1.328125 -1.535156 -1.046875 -1.796875 C -0.773438 -2.066406 -0.640625 -2.429688 -0.640625 -2.890625 C -0.640625 -3.359375 -0.789062 -3.734375 -1.09375 -4.015625 C -1.394531 -4.296875 -1.835938 -4.4375 -2.421875 -4.4375 L -5.1875 -4.4375 Z M -5.1875 -5.296875 "/></g></g></g><g fill="#000000" fill-opacity="1"><g transform="translate(10.763813, 24.8974)"><g><path d="M -5.28125 -7.078125 C -5.28125 -7.679688 -5.082031 -8.164062 -4.6875 -8.53125 C -4.300781 -8.894531 -3.742188 -9.078125 -3.015625 -9.078125 L 0 -9.078125 L 0 -8.21875 L -2.9375 -8.21875 C -3.445312 -8.21875 -3.835938 -8.09375 -4.109375 -7.84375 C -4.378906 -7.601562 -4.515625 -7.265625 -4.515625 -6.828125 C -4.515625 -6.367188 -4.363281 -6.003906 -4.0625 -5.734375 C -3.769531 -5.460938 -3.332031 -5.328125 -2.75 -5.328125 L 0 -5.328125 L 0 -4.46875 L -2.9375 -4.46875 C -3.445312 -4.46875 -3.835938 -4.335938 -4.109375 -4.078125 C -4.378906 -3.828125 -4.515625 -3.488281 -4.515625 -3.0625 C -4.515625 -2.601562 -4.363281 -2.234375 -4.0625 -1.953125 C -3.769531 -1.679688 -3.332031 -1.546875 -2.75 -1.546875 L 0 -1.546875 L 0 -0.6875 L -5.1875 -0.6875 L -5.1875 -1.546875 L -4.015625 -1.546875 C -4.421875 -1.671875 -4.734375 -1.894531 -4.953125 -2.21875 C -5.171875 -2.550781 -5.28125 -2.925781 -5.28125 -3.34375 C -5.28125 -3.789062 -5.164062 -4.175781 -4.9375 -4.5 C -4.71875 -4.820312 -4.390625 -5.050781 -3.953125 -5.1875 C -4.367188 -5.332031 -4.691406 -5.570312 -4.921875 -5.90625 C -5.160156 -6.25 -5.28125 -6.640625 -5.28125 -7.078125 Z M -5.28125 -7.078125 "/></g></g></g><g fill="#000000" fill-opacity="1"><g transform="translate(10.763813, 15.177237)"><g><path d="M -5.1875 -1.046875 L -1.109375 -2.734375 L -5.1875 -4.296875 L -5.1875 -5.25 L 2.453125 -2.171875 L 2.453125 -1.1875 L -0.078125 -2.265625 L -5.1875 -0.078125 Z M -5.1875 -1.046875 "/></g></g></g><g fill="#000000" fill-opacity="1"><g transform="translate(10.763813, 9.840121)"><g><path d="M -5.28125 -3.421875 C -5.28125 -4.023438 -5.082031 -4.507812 -4.6875 -4.875 C -4.300781 -5.25 -3.742188 -5.4375 -3.015625 -5.4375 L 0 -5.4375 L 0 -4.578125 L -2.9375 -4.578125 C -3.457031 -4.578125 -3.851562 -4.445312 -4.125 -4.1875 C -4.40625 -3.925781 -4.546875 -3.566406 -4.546875 -3.109375 C -4.546875 -2.640625 -4.390625 -2.257812 -4.078125 -1.96875 C -3.773438 -1.6875 -3.332031 -1.546875 -2.75 -1.546875 L 0 -1.546875 L 0 -0.6875 L -5.1875 -0.6875 L -5.1875 -1.546875 L -3.953125 -1.546875 C -4.378906 -1.679688 -4.707031 -1.914062 -4.9375 -2.25 C -5.164062 -2.59375 -5.28125 -2.984375 -5.28125 -3.421875 Z M -5.28125 -3.421875 "/></g></g></g><g fill="#000000" fill-opacity="1"><g transform="translate(10.763813, 3.766201)"><g><path d="M -4.140625 -1.546875 C -4.492188 -1.722656 -4.769531 -1.972656 -4.96875 -2.296875 C -5.175781 -2.617188 -5.28125 -3.007812 -5.28125 -3.46875 L -4.34375 -3.46875 L -4.34375 -3.203125 C -4.34375 -2.722656 -4.21875 -2.328125 -3.96875 -2.015625 C -3.71875 -1.703125 -3.304688 -1.546875 -2.734375 -1.546875 L 0 -1.546875 L 0 -0.6875 L -5.1875 -0.6875 L -5.1875 -1.546875 Z M -4.140625 -1.546875 "/></g></g></g></g></g></svg>